<?xml version="1.0" standalone="no"?><!DOCTYPE svg PUBLIC "-//W3C//DTD SVG 1.1//EN" "http://www.w3.org/Graphics/SVG/1.1/DTD/svg11.dtd"><svg t="1566484987861" class="icon" viewBox="0 0 1024 1024" version="1.1" xmlns="http://www.w3.org/2000/svg" p-id="1789" xmlns:xlink="http://www.w3.org/1999/xlink" width="200" height="200"><defs><style type="text/css"></style></defs><path d="M813.961286 466.980667l-262.866896 0 0-262.866896c0-21.592784-17.502629-39.258119-39.258119-39.258119-21.592784 0-39.258119 17.502629-39.258119 39.258119l0 262.866896-262.703167 0c-21.591761 0-39.258119 17.502629-39.258119 39.258119 0 21.592784 17.502629 39.258119 39.258119 39.258119l262.866896 0 0 262.866896c0 21.591761 17.502629 39.258119 39.258119 39.258119 21.592784 0 39.258119-17.502629 39.258119-39.258119L551.258119 545.333176l262.866896 0c21.592784 0 39.258119-17.502629 39.258119-39.258119C853.220429 484.483296 835.717799 466.980667 813.961286 466.980667L813.961286 466.980667M813.961286 466.980667 813.961286 466.980667z" p-id="1790"></path></svg>