<?xml version="1.0" standalone="no"?><!DOCTYPE svg PUBLIC "-//W3C//DTD SVG 1.1//EN" "http://www.w3.org/Graphics/SVG/1.1/DTD/svg11.dtd"><svg t="1566485464022" class="icon" viewBox="0 0 1024 1024" version="1.1" xmlns="http://www.w3.org/2000/svg" p-id="6993" xmlns:xlink="http://www.w3.org/1999/xlink" width="200" height="200"><defs><style type="text/css"></style></defs><path d="M768.87 883.47H380.15c-49.71 0-90-40.29-90-90V246.66h568.72v546.81c0 49.7-40.3 90-90 90z" fill="#99D1FF" p-id="6994"></path><path d="M892 266.66H132c-11.05 0-20-8.95-20-20s8.95-20 20-20h760c11.05 0 20 8.95 20 20s-8.95 20-20 20z" fill="#0072F0" p-id="6995"></path><path d="M704.88 903.47H316.16c-60.65 0-110-49.35-110-110V246.66c0-11.05 8.95-20 20-20h568.72c11.05 0 20 8.95 20 20v546.81c0 60.65-49.34 110-110 110zM246.16 266.66v526.81c0 38.6 31.4 70 70 70h388.72c38.6 0 70-31.4 70-70V266.66H246.16zM638.18 160.53H385.82c-11.05 0-20-8.95-20-20s8.95-20 20-20h252.36c11.05 0 20 8.95 20 20s-8.95 20-20 20z" fill="#0072F0" p-id="6996"></path><path d="M389.6 752.73c-11.05 0-20-8.95-20-20V388.05c0-11.05 8.95-20 20-20s20 8.95 20 20v344.69c0 11.04-8.95 19.99-20 19.99zM511.7 752.73c-11.05 0-20-8.95-20-20V388.05c0-11.05 8.95-20 20-20s20 8.95 20 20v344.69c0 11.04-8.95 19.99-20 19.99zM633.81 752.73c-11.05 0-20-8.95-20-20V388.05c0-11.05 8.95-20 20-20s20 8.95 20 20v344.69c0 11.04-8.96 19.99-20 19.99z" fill="#0072F0" p-id="6997"></path></svg>